Coordinates
version=1
nRows=11
nColumns=36
inDegrees=yes

Units are S.I. units (second, meters, Newtons, ...)
If the header above contains a line with 'inDegrees', this indicates whether rotational values are in degrees (yes) or radians (no).

endheader
time	pelvis_tilt	pelvis_list	pelvis_rotation	pelvis_tx	pelvis_ty	pelvis_tz	hip_flexion_r	hip_adduction_r	hip_rotation_r	knee_angle_r	knee_angle_r_beta	ankle_angle_r	subtalar_angle_r	mtp_angle_r	hip_flexion_l	hip_adduction_l	hip_rotation_l	knee_angle_l	knee_angle_l_beta	ankle_angle_l	subtalar_angle_l	mtp_angle_l	lumbar_extension	lumbar_bending	lumbar_rotation	arm_flex_r	arm_add_r	arm_rot_r	elbow_flex_r	pro_sup_r	arm_flex_l	arm_add_l	arm_rot_l	elbow_flex_l	pro_sup_l
      2.66666670	     -4.26997359	     -1.46873966	      1.52094180	      0.68981773	      0.78172468	      0.02899932	     50.00204809	    -13.20251519	     -2.31211913	     54.64753303	      0.95377938	      0.09647178	    -20.60860820	     -7.49999987	     47.25930260	    -12.05405392	     -2.30415650	     47.86869991	      0.83546642	     -2.07803969	    -17.19296254	     -7.49999987	    -11.91547126	     -1.24616484	     -2.51090717	     69.78273437	     -4.40782463	     40.17288247	    115.33319011	     96.00044088	     61.79477529	     -1.66742962	     37.33983532	    120.28875526	     87.04217316
      2.68333330	     -4.00728136	     -1.63539743	      2.65084989	      0.70002692	      0.75111805	      0.02666026	     56.26061643	    -14.30284480	     -0.43846308	     68.07270989	      1.18809292	      8.10578320	    -20.91960036	     -7.49999987	     54.82324986	    -11.69863293	      0.58659578	     62.99783645	      1.09951967	      5.15695956	    -20.13685267	     -7.49999987	    -14.26305621	     -0.83845847	     -2.80111542	     70.49661366	     -4.20053152	     39.98654937	    116.87537141	     94.72317400	     62.22587197	     -0.83544582	     36.85315036	    120.87242336	     86.35825016
      2.70000000	     -4.47787814	     -2.07309627	      3.39984979	      0.72047359	      0.71416832	      0.02996920	     61.58130305	    -15.18419860	      0.48734042	     78.75819126	      1.37458975	     15.16029338	    -19.56166983	     -7.49999987	     61.53858366	    -12.24938055	      2.91294435	     74.90996300	      1.30742550	     11.75801657	    -19.44252070	     -7.49999987	    -15.40399074	     -0.45896494	     -2.63750432	     70.02954744	     -4.61007538	     39.61895228	    118.79561211	     94.98715674	     61.53214748	      0.44737369	     36.89757056	    122.33087600	     86.70259088
      2.71666670	     -5.72933670	     -2.39191542	      3.65003752	      0.73250900	      0.68974500	      0.03335780	     65.78979896	    -15.56358129	      0.96950757	     85.72494316	      1.49618251	     20.50675119	    -17.92581710	     -7.49999987	     66.85936701	    -13.13881734	      4.38036308	     83.04073179	      1.44933418	     16.09592593	    -17.80994075	     -7.49999987	    -16.25642300	     -0.26530204	     -2.22354274	     69.03189993	     -5.25471498	     39.99591872	    121.07808808	     96.97225629	     59.15211410	      0.73395511	     37.47300939	    124.88389598	     88.57609671
      2.73333330	     -6.99875178	     -2.86317935	      4.25602723	      0.73992018	      0.66103961	      0.03957656	     69.77007912	    -16.20409414	      0.94455201	     91.62070185	      1.59908291	     24.17697489	    -17.20836747	     -7.49999987	     71.55973684	    -14.35921162	      5.81756287	     88.65827738	      1.54737885	     20.00713159	    -14.40385472	     -7.49999987	    -17.04279389	     -0.07595346	     -2.12286458	     68.22613314	     -6.27200849	     40.36117312	    122.76384117	     95.35012570	     57.68055528	      0.70778957	     37.72889816	    126.09832741	     87.49496395
      2.75000000	     -8.74251496	     -3.10514505	      4.66169405	      0.74520362	      0.63173467	      0.04219698	     74.38130064	    -16.99742845	      1.24788646	     96.83033901	      1.69000823	     27.22962232	    -17.00904790	     -7.49999987	     76.68619433	    -15.57124230	      6.78869776	     93.61201812	      1.63383794	     22.39944570	    -11.08439387	     -7.49999987	    -17.12750162	      0.11805566	     -1.84788096	     67.94647738	     -6.57314548	     40.36776084	    122.79649251	     97.11837773	     56.00419549	      0.98918825	     36.74514407	    125.96781919	     89.42583001
      2.76666670	    -11.15366686	     -3.27024985	      4.58259773	      0.74728502	      0.60254701	      0.04250078	     79.95041945	    -17.62583752	      2.08823605	    101.63713241	      1.77390260	     30.01790543	    -15.75050842	     -7.49999987	     82.47385774	    -16.56370766	      7.69664819	     97.94518291	      1.70946593	     24.66301621	     -8.20486903	     -7.49999987	    -16.95522491	      0.14961173	     -2.06877471	     67.29374207	     -5.89372615	     40.11553390	    123.17195964	     96.11082795	     55.08651540	      1.27421313	     36.06133897	    126.03943222	     89.29980711
      2.78333330	    -13.18879995	     -3.02775290	      4.46397600	      0.74260874	      0.58789008	      0.04133114	     84.74467691	    -18.06046748	      3.24970704	    104.54942094	      1.82473163	     31.98854429	    -14.40457627	     -7.49999987	     86.95010368	    -16.98615680	      7.61806022	    100.73025522	      1.75807461	     25.73706044	     -6.78611163	     -7.49999987	    -17.86620247	      0.17928145	     -2.11673556	     67.85694801	     -5.26413395	     39.75774955	    122.73917888	     98.46755134	     54.76528886	      1.60562338	     35.06595781	    125.82712291	     94.90549249
      2.80000000	    -15.48140660	     -2.88869092	      4.49215940	      0.74439926	      0.56756786	      0.04312758	     89.41668932	    -18.72810699	      4.44620568	    107.20100007	      1.87101041	     33.29413987	    -12.78951181	     -7.49999987	     91.44602302	    -17.34199101	      7.84229479	    103.18818442	      1.80097357	     26.53942885	     -5.32936622	     -7.49999987	    -18.50750272	      0.30512527	     -2.00797608	     68.89820184	     -4.86636436	     40.04134696	    123.08589534	     98.20578721	     55.19343286	      1.91063523	     34.70739192	    125.42349360	     94.87053773
      2.81666670	    -17.07785574	     -2.66359108	      4.59537822	      0.74420739	      0.54913566	      0.04323463	     93.44543151	    -19.33636553	      5.72400797	    109.66284962	      1.91397779	     33.91610113	    -12.12212136	     -7.49999987	     95.04102447	    -17.55667733	      7.82057220	    105.46942547	      1.84078873	     27.36520708	     -4.41156181	     -7.49999987	    -19.98702447	      0.48184804	     -1.92592495	     71.13901682	     -4.89410600	     40.44243783	    123.30319380	     96.15490967	     56.85244216	      2.32193138	     34.59945003	    124.94856638	     92.99176834
      2.83333330	    -18.61458105	     -2.52374711	      4.71478504	      0.74801160	      0.53091823	      0.04529206	     97.43207225	    -19.94048583	      6.90464669	    112.35284006	      1.96092698	     34.71782033	    -11.37528952	     -7.49999987	     98.74459485	    -17.85547369	      8.24887812	    108.04885910	      1.88580834	     27.95063355	     -3.55369551	     -7.49999987	    -20.83123311	      0.60900336	     -1.54657757	     72.45860847	     -4.98061082	     40.36170527	    123.41180199	     95.27917733	     57.93835574	      2.64722861	     34.44699541	    124.60126257	     92.70698561
